<!-- 
******* (c) Fla-shop.com | SVG map of Italy *******
******* Free for personal and commercial use under CC-BY-4.0 license *******
******* Attribution is required https://www.fla-shop.com *******
 -->
        <svg xmlns="http://www.w3.org/2000/svg" viewBox="0 0 1600 2000" fill="none">
  <path style="fill: rgb(104, 125, 146); fill-opacity: 1; fill-rule: evenodd; stroke: none;" d="m 824.1,1983 -1.2,0 -11.9,-3 13.8,0 -0.7,3 z m -85.9,-217 -2.4,6 -4.7,0 -8.6,-6 -2.2,-7 7.9,0 2.9,-3 7.1,10 z m 36.6,-194 -3.5,3 -9.7,-7 6.8,0 6.4,4 z m 428.2,-70 -9,19 -13,19 -16,32 -7,9 2,6 -6,26 -8,12 1,24 3,7 15,6 5,3 -9,10 10,16 7,0 1,9 4,6 -8,4 0,3 -12,5 -9,25 6,19 -2,4 -6,3 -10,-10 -2,3 -15,-6 -13,6 -14,-3 -3,-3 -24,-6 -14,-26 -9,-8 -8,-6 -22,-10 -12,0 -12.8,3 -6.3,0 -8.6,-6 -10.8,-3 -9.9,-3 -16,-16 -15.9,-4 -24.8,-12 -3.6,-7 -11.4,-9 -16.7,-3 -2.8,3 -7.9,-14 -10.7,0 -15.1,0 -16.7,3 -9,-13 -9.9,-3 -4.4,-3 -9.4,-22 4.8,-4 1.6,-9 -1.6,-6 4.6,-16 9.2,-10 3.8,0 6.9,-9 8.7,0 -1.3,-10 5.7,0 8.3,16 11.5,10 10.2,-4 11.9,-9 -2.2,-10 5.9,-6 14.3,0 14.4,-10 7.9,10 2.9,13 16.5,-3 4.5,9 22,10 11.4,3 14.4,-7 5,-6 10.8,-3 12.6,3 9,0 13,0 15,-3 5,-3 11,0 17,-7 12,-12 9,-4 14,-3 8,3 11,0 5,4 13,-4 7,-15 1,3 6,0 14,-3 15,-13 6,0 13,3 -9,6 0,7 z m -81,-29 1,7 -6,-7 0,-6 5,6 z m -3,-12 -1,3 -9,-3 0,-7 7,0 3,7 z m -14,-16 -2,3 -9,-3 7,0 4,0 z m -856.8,-42 -4.2,0 -8,-15 1.7,-10 11.6,3 2.2,7 -3.3,15 z m -17.3,-39 0,17 -7,-3 -3.9,-6 2.8,-8 8.1,0 z m 731.5,-275 -8.6,3 -5.2,0 0.9,-11 13.8,3 -0.9,5 z m -736.1,-40 -0.7,10 -4.5,0 2.3,-10 5.7,-3 0.7,-6 6.2,-3 0.6,3 0,6 -10.3,3 z m 156.4,-22 -4.4,0 2.9,-9 2.7,3 -1.2,6 z m -4.4,-6 -7.6,0 -0.3,0 6,-7 1.9,7 z m -19.5,3 6.2,3 0.6,-6 13.7,16 0,6 3.4,-10 12.2,4 -3.5,6 -3.7,13 5.9,-4 2.5,4 5.7,0 4.5,3 -7.9,0 -4.2,9 -6.5,0 8.4,7 8.9,-4 -3.2,4 13.7,9 -7.9,8 5.7,6 5.8,19 0.3,10 9.9,13 -2.2,9 -7.7,16 -4.6,0 -10.7,18 0,6 3.5,13 10.1,10 -5.1,15 0.7,23 -2.6,6 0,19 -3.1,13 0,16 -2.6,6 2.6,3 -4.2,16 -1.6,13 3.9,3 -6.7,6 -1.9,10 1.9,3 -2.9,11 -4.7,3 -10.2,0 -13.3,-14 -6.9,-6 -12.7,0 -3.8,6 -4.1,0 -12.7,-13 -2.2,3 7.5,7 -8.2,11 0,9 3.5,7 -3.8,12 -21.4,19 -6.4,-6 -12,-3 -9.7,6 -5.6,0 1.6,-9 -4,-4 -2.8,-15 -7.5,0 -3.9,-10 -4.2,0 -0.4,-9 -4.2,0 -4.6,-11 7.5,-10 -1.1,-10 -5.7,-6 3.5,-6 -0.7,-7 -1.1,-3 10.3,-19 -1.7,-12 -0.6,-19 9.1,12 4.6,0 -5.7,-6 5.3,-6 0,-20 -11,-3 -2.8,3 -5.3,-3 -0.4,-12 1.6,-7 -2.9,-3 9.8,-3 4,-10 -2.9,-6 -1.1,-13 2.2,-6 -1.5,-8 -9.9,-7 0.7,-9 -3.5,-13 -4.1,-3 -2.9,-13 -5.7,-3 -6.3,3 0,-6 -5,0 -1.8,9 -2.8,-9 3.9,-3 3.5,-10 -8.1,-6 9.9,-24 0,-10 -4.2,-3 3.5,-6 3.9,3 0,6 9.8,13 27,5 9.8,-5 5.6,-9 8.6,-4 7.4,0 5.9,-3 9.2,-12 4,-4 12,-15 10.7,0 9.4,-10 1.2,-9 7.3,-4 5.1,4 1.9,6 z m 208,-193.4 -2.2,3.1 -8.3,-9.4 2.9,-4.8 7.6,11.1 z m -65.2,-80.7 -2,6.3 -3.6,0 5.6,9.5 -6.6,0 -7.5,-9.5 -11.1,6.3 -10.6,0 -5.1,-3.1 0.7,-9.5 5.7,0 13.8,0 0.6,-3.2 10.1,3.2 5.7,-9.6 5.2,3.2 -0.9,6.4 z m -73,-38 -3.4,3.2 -5.1,-3.2 5.1,-6.3 3.4,6.3 z m 255,-678.28 4.3,12.67 6.7,6.49 7.9,1.59 1.2,13.29 8.7,3.16 3.5,9.34 12,5.7 11,3.48 12.3,-0.63 9.1,1.9 10.7,4.39 27.4,0.7 9.2,1.6 10.2,5.2 16.5,-3.4 12.2,0 23.4,6.2 3.6,-0.3 -1.3,8.9 -3.6,4.1 -6.6,0.6 -7.6,9.7 -11.9,8.3 -6.3,9.4 5.7,14.1 1.6,-3.5 10.6,1.6 6,4.7 9.1,0 -2.2,9.6 -12.6,10.9 -4.4,10.4 6.3,6.3 10.7,-4.1 2.2,3.5 -5,17.9 2.8,8.9 8.7,2.5 14.9,7.5 10.3,15.4 4.8,2.2 -5.4,8.7 -16.6,-0.6 2.2,-3.6 6.3,0 -5.7,-6.4 1.3,-3.8 -13.3,-14.3 -8.1,-4.1 -3.4,-0.7 -2.9,5.9 3.4,4.1 -14.2,10.1 -6.5,0 6.5,-4.5 -0.9,-2.7 -20.1,-4.5 -4.8,-2.8 -7.5,3.8 -5,-1.6 0.9,4.4 -5.6,4.7 2.9,3.8 6.8,-2.9 -6.2,9.2 -4.1,2.9 -13.7,1.6 -18.8,14.1 -19.4,10.8 -23.7,10.9 3.8,-10.3 13.5,-6.3 -7,-7 -7.4,7.6 -10.8,5.1 -8.6,6.8 -3,9.1 1.8,2.9 -5.9,15 -6.2,-0.6 -0.7,3.5 2.6,5 3,-2.2 2.6,-3.5 0.9,13.4 3.7,3.1 5.1,-5 3.4,10.6 1.6,10.7 -2.8,3.5 8.2,2.2 14.4,14.4 5.8,0.6 -4.2,15.9 -5,10.3 -3.1,-5.7 1,-8.1 -3.2,1.9 -1.2,16.6 -12.7,-7.9 -4.5,22.6 3.5,14.3 2.2,3.2 0.7,19 4.4,22.1 9.2,22.2 4.6,6.3 5.4,3.2 2.2,6.2 12,6.4 7.4,9.5 10.2,9.5 5.4,0 6,0 18.6,14.3 29.2,22.1 9.7,6.3 18.9,12.7 9.3,3.2 3.2,-3.2 8.6,6.4 5.7,3.1 4.7,15.8 14.5,28.5 5.7,15.9 6.5,12.6 3.1,9.5 2.5,9.5 5.7,19 5.7,15.8 8.6,15.9 10.3,19 9.8,9.5 9.6,9.4 4.7,3.2 17,12.7 6,9.5 17,14.3 18,6.2 3,3.2 4,12.7 2,3.1 15,6.4 16,0 6,6.3 14,6.4 17,0 22,3.1 20,-6.3 21,0 31,-6.4 15,3.2 5,6.4 4,15.7 -5,6.4 -5,3.1 -10,9.5 -12,6.4 -4,12.7 4,12.7 8,6.2 7,3.2 38,15.8 21,9.6 11,3.1 6,3.2 32,9.5 8,3.2 22,2.9 19,10 10,6 10,10 7,3 12,9 9,4 12,3 15,3 13,9 15,4 0,3 8,0 5,6 0,6 8,7 20,11 19,19 10,9 13,26 -3,9 -6,7 -3,19 1,5 -3,16 -12,-6 -9,0 -19,-10 -12,-15 3,-3 -7,-6 3,-3 0,-7 -11,-9 -3,-13 -9,-6 -11,3 -33,0 -41,-13 4,-6 -3,-7 9,0 3,-6 -10,0 -8,6 -2,-6 -15,0 -9,6 -8,10 -5,9 -10,16 -3,16 -12,16 -4,6 -1,7 6,11 -11,16 -5,13 0,6 7,10 -2,3 4,6 11,7 17,-4 9,7 5,6 14,7 8,3 6,6 14,3 -4,13 1,16 4,6 -2,16 6,13 7,0 -4,6 0,6 -8,15 -4,-8 -7,3 -5,-3 -11,3 -22,11 -14,13 -5,6 -4,9 9,32 0,10 -1,9 -12,13 -16,9 -4,7 -17,22 -4,25 -4,10 -11,6 -9,-3 -24,3 -13,-6 -5,-6 3,-7 -5,-6 2,-10 -3,-12 2,-4 17,-9 14,-35 1,-3 -3,-13 -9,-9 1,-3 20,-13 16,-3 7,-4 4,-12 0,-13 -3,-6 -7,-3 -9,-18 -2,-3 -10,-48 -6,-12 -9,-13 -10,-9 -5,-13 -4,-10 -4,-16 -3,-6 1,-6 -5,-7 -3,-9 -12,-13 -5,-3 -10,0 -15,16 -9,0 -9,-10 -7,-6 -14,-12 -12,0 -5,-6 -12,-3 1,-16 9,-3 0,-7 -17,-28 -11,-16 -8,-3 -9,6 -8,0 -9,7 -10,0 -17,6 0,-6 6,0 7,-10 4,-3 0,-8 -14,-6 -10,-10 -9.6,0 -2.2,6 -14.3,-3 -1.4,7 -5.7,0 0,-13 -5,-13 -6.3,-9 -6.1,-3 -1.2,-7 -8.7,-16 -15,-12 -4.4,-3 -14.3,0 -4.1,3 1.9,6 -32.9,-13 -15.6,4 -10.8,6 -2.8,3 -6.5,0 -8.9,-19.1 -11.4,-9.5 -7.1,-3.2 -7.9,0 -16.3,-6.3 -2.2,3.2 -12.1,-15.9 -13.1,-15.9 -13.6,-9.4 -13.5,-6.3 -3.1,-6.4 -1.3,-9.5 -7.9,-12.7 -30.5,-22.1 -11,3.2 -10.1,-15.9 -1.9,-6.3 -11,-19 -15.1,-12.6 -11.2,-4.8 -12.4,-6.3 -17.9,0 -3.5,11.1 -11.3,-7.9 2.2,-6.4 6.3,0 2.8,-6.3 -0.7,-6.4 -3,-9.5 -4.2,3.2 -6.3,-12.6 -9.4,-6.3 -2.2,-6.4 -12.3,-9.5 -20.1,-6.3 3.7,-6.4 1.3,-9.5 -8.5,-6.3 -9.2,-3.1 -12.2,0 -2.2,6.2 -5.1,-12.6 4.5,-6.3 2.8,-9.5 0.7,-9.5 -4.2,-22.1 -10.1,-19.1 -10,-12.7 -5.6,-3.1 -2.9,-15.9 -3.8,-37.9 -0.6,-3.2 -6.8,-15.8 -8.3,-11.1 -4.4,-6.3 -9.8,-6.4 -8.1,0 -14.2,-9.5 -2.9,6.4 -6.5,0 -11.7,-12.7 -6.3,0 -5.8,-9.5 -8,-3.1 -2.8,-3.2 -5.7,0 -8.2,-6.3 -0.4,-3.2 -16.9,-9.5 -2.9,9.5 -7.3,-6.3 -2.2,-6.4 -15.6,-3.1 -9.7,-3.2 -9.2,0 -2.4,-3.2 -12.5,0 -11.6,9.5 -7.8,3.2 -12.2,9.5 -6.8,12.7 0,3.1 -12.1,6.3 -9.8,9.5 -2.2,9.5 -7.4,12.7 1.8,4.8 -4.6,3.2 -8.1,6.2 -13.2,6.3 -21.3,6.4 -11.4,6.3 -23.5,-3.1 -2.9,-9.6 9.8,-15.7 9.2,-7.9 7.4,-15.9 -5.7,-9.5 1.7,-6.4 -33.9,9.6 -15.4,-6.4 -12.6,-9.4 -13.77,-6.3 -4.59,0 -8.6,-9.6 -6.3,-12.6 1.14,-6.4 5.16,-3.2 -9.17,-12.6 1.15,-6.3 6.31,-6.3 5.73,-6.4 0,-9.5 5.16,-3.2 8.59,0 -1.72,-3.1 -4.58,-13.8 1.15,-5.1 -9.17,-6.9 -8.03,1.3 -10.32,-5.7 -5.74,-7.8 0,-14.3 -7.44,-2.8 -6.88,-12.5 8.02,-6.3 8.03,-2.8 13.18,4.9 4.59,-6.2 4.01,0 5.16,-6.8 8.59,-2.9 2.88,2.2 6.87,-7.6 -1.72,-10.8 8.61,-14.4 -7.46,-4.4 -2.29,-5 -10.89,-8.3 -3.44,-12.5 1.71,-9.2 -14.32,-7.4 -5.74,-6.4 -1.15,-13.2 2.3,-5.1 12.62,-3 7.44,-3.8 6.88,-9.2 5.16,5.7 6.28,2.9 7.5,-0.7 12,-5 9.2,0.6 17.2,-7.6 4.6,-4.5 11.5,2.9 6.2,6.3 16.1,2.9 2.2,-4.1 5.9,-7.3 10.3,-2.6 2.8,-5.2 1.1,-8.5 11.6,-7.9 2.2,-11.6 -6.8,-10.1 4,-5.4 10.2,-3.8 5.7,-7.8 6.3,-3.8 2.9,-9.1 9.8,-3.5 4.6,2.9 0.5,9.1 -2.2,13.8 0,8.5 9.8,7.7 10.7,14.4 8.7,4.3 6.4,-1.6 9,2.9 3.5,3.8 -8.1,14.4 12.2,5.7 4.6,10.8 0,9.4 10.8,1.9 6.9,-10.6 -1.2,-5.7 -4.4,-2.3 -3.5,-7.3 4.1,-3.5 -1.9,-8 6.9,-4.2 1.6,-9.7 10.6,-8.7 7.3,-10.2 12,-0.6 -12,0.6 5.1,-13 -1,-18.5 -2.9,-3.4 3.2,-8.1 7.6,-2.9 5.9,5.3 6.7,-3.7 1.9,20.7 3.8,2.2 3.4,8.4 5,2.9 14.1,0 3.9,-3.5 0,-5.9 6.9,1 15.4,-6 7.5,2.8 1.6,9.7 7,6.3 1.1,7 12,-4.1 2,-3.5 -8.3,-10.9 4.8,-9.2 0,-5.8 -10.8,-2.7 -1.4,-17.3 6.5,-12 12,-3.9 5.1,1.6 0,7 6.8,3.8 15.4,2.2 2.9,-1.5 0.6,-13.1 -7.5,-2.6 -2.8,-5.73 3.5,-10.76 2.8,-3.48 -1.3,-7.44 4.1,-10.77 8.7,3.49 15.5,-3.49 10.3,6.65 -3.6,4.12 19.2,5.22 13.7,-0.95 6.3,-9.34 3.8,-15.51 7.6,-8.07 18.3,-5.69 10.6,2.84 5.6,-5.7 7.3,1.59 9.2,-1.59 10.3,1.27 7.6,2.84 22.3,-12.02 7.9,-0.63 11.4,-7.13 10.3,-0.32 -2.2,7.45 -8.1,7.27 z m -47.3,470.98 -1.3,3.1 7.3,-6.3 -6,3.2 z m 101.1,47.4 4.9,8 4.5,0 2.8,-8 -0.6,-9.5 -7.3,3.2 -4.3,6.3 z" id="outline"></path>
  <path d="m 492.9,115 0.7,-13.1 -7.7,-2.3 -3.5,-5.8 3.5,-10.3 3.5,-3.4 -1.6,-7.48 3.8,-11.47 9.3,3.44 15.6,-3.44 9.5,6.88 -3.5,4.59 19.8,4.59 13,-1.15 7.1,-9.17 3.8,-15.48 7,-7.45 18.1,-5.73 11.5,2.29 4.8,-5.16 7.3,1.72 9.2,-2.3 10.2,1.15 7.7,2.87 22.3,-12.04 7.9,-0.58 11.5,-6.88 10.5,-0.57 -2.5,8.03 -8,6.88 m 0,0 4.1,12.61 6.7,6.3 8.3,1.72 1,13.19 8.6,4.01 4.1,8.63 11.5,5.7 m 0,0 10.8,4 12.7,-1.1 9.6,1.7 m -33.1,-4.6 -9.9,10.3 -3.8,-1.7 -15.6,6.3 -4.5,-6.3 -9.2,-5.2 -8.6,21.8 -19.5,5.2 -2.5,1.7 0.6,3.5 6.4,2.8 -4.1,14.3 -5.1,2.9 5.7,10.3 0.6,5.2 8.6,3.4 -0.6,5.2 6.4,4 -8.6,11.5 -10.9,4.6 -10.5,1.1 -2.8,12.6 0,7.5 -9.6,1.1 -2.9,-4.6 -9.8,-0.5 -12.1,5.7 -3.9,9.8 -5,-2.3 -4.2,3.4 -9.2,18.9 -1,9.2 -6.4,9.8 -14.9,-1.8 -8.6,5.2 -7.3,-6.3 3.1,-10.9 -6.6,-8.6 M 761.1,90.4 771,95 l 27.4,0.5 9.2,1.8 m 2.9,158.8 -9.9,-17.8 -3.2,-10.9 -3.5,-2.8 -2.2,3.4 -7,0 -2.9,-3.4 -5.1,4 -4.1,-5.2 -10.9,9.2 -2.8,0.6 -5.1,-5.2 -8,-0.6 -5.7,-14.3 -9.9,-6.9 -2.9,-12.6 1.6,-6.3 7,-5.8 -1.6,-8.6 -4.1,-7.4 -9.2,-3.4 -5.8,-6.4 4.2,-6.8 7.3,-4.6 7,-12.6 5.7,-9.2 10.2,-1.7 2.3,-9.2 11.1,-3.4 -1.9,-17.8 m 46.5,6.9 10.2,5.1 16.9,-2.8 12.4,-0.6 22.9,6.3 3.5,-0.6 -1.2,9.2 -3.2,4 -7,0.6 -7.4,9.7 -12.1,8.1 -6.3,9.7 5.7,13.8 1.6,-3.5 10.5,1.7 6.4,4.6 8.9,0 -2.2,9.8 -12.1,10.9 -4.5,10.3 5.7,6.3 11.5,-3.4 1.6,2.8 -5.1,17.8 2.9,9.8 8.6,1.7 14.9,7.4 10.2,15.5 4.8,2.9 -5.1,8 -16.9,0 2.6,-4 6.7,0 -6.4,-6.3 1.9,-3.4 -13.7,-15 -8.3,-3.4 -3.2,-1.1 -2.8,5.7 3.2,4 -14.4,10.3 -6,0 6,-4.6 -0.9,-2.8 -20.1,-4 -4.1,-3.5 -7.4,4 -5.7,-1.7 1.6,5.2 -6.4,4 2.9,4 7,-2.9 -5.7,9.2 m -520,-64.8 9.8,2.9 2.8,4 -8,14.3 12,5.8 5.2,10.9 -0.6,9.1 10.9,1.8 6.9,-10.4 -0.6,-5.7 -5.1,-2.3 -3.5,-7.4 4,-3.5 -1.7,-8 6.9,-3.5 1.7,-9.7 10.9,-9.2 6.9,-10.3 12.7,-0.6 -12.7,0.6 5.1,-13.2 -1,-18.4 -2.4,-3.4 2.7,-8 8.3,-2.9 5.1,5.8 6.7,-4.1 2.5,20.7 3.2,2.3 4.2,8 5.1,2.9 13.3,0 3.9,-3.5 0,-5.1 7,0.5 15.2,-6.3 7.7,2.9 2.2,9.7 6.4,6.3 0.9,6.9 12.1,-4 2,-3.4 -8.3,-10.9 4.8,-9.2 0,-5.2 -10.9,-3.4 -1.2,-17.2 6.3,-12 12.1,-4 5.1,1.7 0,7.4 7.3,3.5 m 0,0 15,2.8 3.5,-2.3 m 0,0 4.5,9.2 5.7,0.6 10.5,5.7 1,7.5 -1.6,5.7 -7,1.7 -3.8,4 6,5.2 1.9,13.2 -2.8,6.9 -0.7,13.2 -5.1,5.7 -6.4,17.2 4.5,2.3 2.9,8.6 -1,6.9 6.4,13.2 12.4,-2.3 2.2,-5.8 15,-0.5 4.2,1.7 m -355.5,-16.1 5.7,-7.4 10.9,-2.3 2.9,-5.2 1.1,-8.6 10.9,-8 2.3,-11.5 -6.3,-9.7 4,-5.8 9.8,-4 5.7,-7.4 6.3,-4 2.9,-9.2 9.7,-3.5 5.2,2.9 0,9.2 -2.3,13.7 0,8.6 9.7,7.5 10.9,14.3 m 0,0 8.6,4.6 6.3,-1.7 m 56.2,242 0.6,-6.4 -8.1,-16.5 -5.1,0 -5.7,-5.1 0.5,-6.4 -9.7,-10.5 -1.7,-5.8 -9.2,-3.1 -0.6,-9.3 -2.9,-1.2 -9.7,5.7 -12,0 -13.8,-23.6 0.6,-5.1 -6.9,-15.9 1.1,-4 4.1,-8.6 10.3,1.7 3.4,6.3 5.2,2.3 6.3,-8.6 -2.3,-3.5 11.5,-5.7 -6.9,-14.3 -6.9,-5.2 -1.2,-5.7 -1.1,-8.6 -3.4,-3.5 1.1,-7.4 -3.4,-2.9 -9.8,-18.9 4,-4.6 -0.5,-15.5 14.9,-16.1 1.1,-16 m -197.74,106.1 -10.9,-8 -2.86,-12.7 1.14,-9.1 -14.33,-7.5 -5.16,-6.3 -1.15,-13.2 2.3,-5.1 12.61,-2.9 7.45,-4 6.31,-9.2 5.16,5.7 6.31,2.9 7.46,-0.6 12.6,-5.1 8.6,1.1 17.2,-8 4.6,-4.6 12,2.9 5.8,6.9 16.6,2.3 1.7,-4.1 m 1.2,3.5 -1.2,-3.5 m -93.44,78.6 6.88,-7.5 1.76,3.5 8,1.1 20.6,-6.3 9.8,-8 9.7,-2.9 14.9,5.2 9.2,0 15.5,-6.3 5.1,-8.1 -0.6,-13.7 -4,-4 -1.7,-8.6 -0.5,-19.5 m 354.3,12.6 -7.1,13.8 -15.9,25.2 1,18.9 -1,8.6 2.9,4.6 4.4,-0.6 2.3,9.2 -2.9,8 7.7,4.6 3.5,-2.9 7.9,7.5 17.2,11.4 1,5 6.3,2.9 3.5,8.3 9.3,-4.1 6.4,2.8 -1.3,7 9.2,0.3 0,4.2 18.2,13.7 m 196.2,-127.2 -4.5,2.9 -14,2.3 -18.8,13.2 -19.4,10.8 -23.6,11.5 4.5,-10.9 12.7,-6.3 -7,-6.9 -7.3,7.5 -10.9,5.1 -8.6,7.5 -2.8,8.6 1.6,2.9 -5.8,14.9 -6.3,-0.6 -0.4,3.4 2.9,5.2 3.2,-2.3 1.9,-3.4 1,13.2 3.5,3.4 5.1,-5.2 3.5,10.3 1.9,10.8 -2.6,3.5 7.7,2.2 14.3,14.3 6.4,1.3 -4.8,15.6 -5.1,10.2 -2.9,-5.7 1.3,-8 -3.5,1.6 -1.3,16.9 m -570.3,126.4 -5.1,-8.9 1.7,-5.7 -33.8,8.6 -16.1,-6.4 -12.6,-8.6 -13.76,-6.3 -4.59,0.6 -8.6,-10.8 -6.31,-12.1 1.15,-7.7 5.16,-3.2 -9.17,-11.4 1.14,-7.7 6.31,-4.4 6.31,-8.6 -0.58,-7 5.16,-3.9 8.6,1 -1.72,-4.5 -4.58,-13.7 1.14,-4.7 -8.6,-7.4 -8.02,1 -10.9,-5.7 -5.73,-7.4 0,-14.3 -7.45,-2.9 -6.88,-12.7 8.03,-5.7 8.59,-3.6 12.62,5.5 4.58,-6.4 4.02,0 5.73,-7 8.6,-2.9 2.29,2.3 6.88,-7.3 -1.14,-10.9 8.02,-14.4 -7.45,-4.6 -2.29,-5.1 m 335.84,58.5 4.1,4.5 8.6,-3.9 3.8,3.2 6.4,12.1 13.4,-1.6 5.1,1.6 15.3,8.6 7.6,0 3.8,8 7,2.8 7.4,0.7 8.3,-4.5 5.7,-7.9 6.7,0 3.5,6.7 14.9,5 13.1,-7.3 10.5,-1.3 9.6,4.8 10.8,-2.8 5.7,-2.3 14.4,1 m -267.6,50 5.2,0 1.2,-5.7 6.7,3.5 0,-10.9 5.7,-11.4 -0.6,-7.7 -5.7,-4.4 0.6,-4.8 13.7,-29.6 10.5,0 3.5,2.2 0.3,-8 5.7,3.2 5.8,-2.2 -0.3,5.1 5.7,3.5 8.6,-1 0,-4.7 10.2,5.7 -1.3,-3.8 8.6,0 -2.2,-6.4 m 185.7,27.4 16.2,2.9 10.8,5 10.9,-7.3 7.6,-7 8.6,-0.9 14.3,-0.7 11.8,1.6 5.8,5.7 11.1,1.3 5.7,-1.6 2.9,11.8 6.1,4.2 6.3,7.6 m 0,0 -12.4,-8.3 -4.8,22.9 3.5,14.1 2.3,3.8 0.6,20.1 5.1,21.3 8.6,21.6 4.8,5.8 5.1,4.8 2.8,4.4 11.5,8.6 7.3,9.3 10.5,7.3 5.8,1.9 m -621,-11.2 6.3,-0.9 2.3,-8 6.3,2.9 21.8,2.9 1.7,-1.3 -2.3,-3.5 6.9,-2.9 4.6,-4.4 0,-21.4 7.4,-6.7 4.6,-9.2 4,-2.9 -1.1,-7.9 6.9,-11.2 1.1,1.3 0.6,1.3 11.4,6.7 6.9,-5.8 18.4,0 4,-5.7 1.7,-6.4 13.8,1.9 5.1,13.1 6.9,-10.2 10.3,-2.2 -4,-11.5 5.7,-7 4.1,0 10.3,8.6 5.7,2.2 m 13.8,0.7 -0.6,-11.5 m -13.2,10.8 6.9,6.4 6.9,-5.7 m 59,43 -4.5,-8 -6.3,-3.5 -11.5,0 -3.5,2.9 -4.5,-1.6 1,-8.3 5.7,-7.3 -0.6,-7.1 -10.8,-7.3 -6.4,2.3 -5.8,-3.9 -11.8,-1.2 m 113.5,45.2 -7.4,-1.6 -10.5,-9.2 0,-7.1 -6.7,-3.1 -12.1,-1.3 -10.8,15.6 -7,4.5 m 42.3,52.2 -8.6,0.9 -14.3,-10.8 -2.9,7.7 -5.7,-2.6 -12.4,-10.2 -6.4,-1.3 -5.7,-7.3 -7.7,-4.1 -3.1,-5.1 -5.8,1.3 -7.6,-5.8 -1,-3.5 -16.7,-10.2 -2.3,8 -8,-3.5 -1.7,-6.4 -16.1,-3.8 -9.2,-4.1 -9.7,0 -2.3,-2.9 -12,0.6 -12.1,7.3 -7.4,4.2 -12.6,8.6 -6.3,13 -0.6,5.8 -11.5,5.7 -9.7,9.9 -2.3,9.5 -8,10.6 1.7,4.4 -4.6,2.9 -7.5,7 -13.7,7.3 -21.2,5.1 -11.5,4.8 -23.5,0 -2.8,-12.8 9.7,-13 9.2,-8.6 7.4,-16.3 m 244.2,-44.5 8,9.2 12.1,8.6 2.2,11.5 4.8,-1.3 -0.7,4.8 9.6,2.2 1.9,5.7 8,3.5 -3.6,8 m 12.2,-50 7.9,4.1 m -7.9,-4.1 7.9,4.1 m 0,0 -3.8,-1.3 -4.1,-2.8 m 7.9,4.1 -3.8,-1.3 -4.1,-2.8 m 265.9,90.1 -13.7,4.5 -9.2,-1.6 -3.9,0.6 -12.1,-2.5 -6.3,-5.1 -13.7,-3.5 -12.1,-8.6 -4.2,-14.4 -4.4,-4.4 8.6,-13.7 2.8,-8.6 -3.5,-1.9 -10.2,2.8 -5.7,-1.5 2.9,-4.2 -5.1,-3.2 -5.8,2.3 -3.5,-0.7 -7.9,-10.2 -5.4,-0.6 -11.8,10.8 -10.5,2.2 0,3.6 6.3,2.8 -7,2.9 0,0 -18.1,2.2 -8,-5.7 -7.6,10.5 -13.1,-7.7 -13.4,-7.9 -6.6,1.3 -5.1,5.1 -4.8,0.6 -10.9,-10.5 -1.5,-6.4 -8.6,-2.2 -6.4,-6.4 -11.5,1.3 -7,-8 m 168.2,10.9 -1.9,3.5 7.6,-5.8 -5.7,2.3 m -5.8,315.3 -12.7,-5.1 -17.8,-1.9 -3.5,9.2 -11.5,-5.7 2.6,-7.4 6,0.7 2.9,-7 0,-7 -3.9,-6.7 -3.5,0.9 -7,-12.4 -8.9,-5.7 -2.5,-7 -12.5,-9.3 -20,-6 3.8,-5.4 1.9,-10.2 -9.2,-7.4 -9.3,-2.8 -11.4,1.6 -2.9,4.1 -5.1,-11.1 4.5,-5.8 2.8,-9.5 0.7,-11.5 -3.8,-20.1 -10.6,-20.7 -9.5,-12.7 -5.4,-4.5 -3.2,-14.9 -4.1,-38.9 -0.7,-1.3 -6.4,-17.2 -8.6,-9.5 -4.4,-7 -9.3,-5.1 m 301,12.1 -0.6,-9.2 -7.3,2.8 -4.2,7.3 4.8,5.1 m 40.8,-14.6 5.7,0.3 18.2,11.2 m -23.9,-11.5 -2.6,15.3 -6,6.3 -5.8,0.7 -5.4,-8 -5.1,2.9 -1.6,-5.4 -7,-3.2 m -7.3,6 5.1,-0.3 2.2,-5.7 m 57.4,2.9 29.3,23.2 9.8,7.7 18.8,10.8 9.3,3.5 3.5,-4.2 8.6,8.6 6,2.9 4.2,14.3 14.3,30.6 6.4,15.3 6.3,12.1 2.9,9.9 2.2,10.2 5.8,17.8 m -192.1,-159.6 -8,4.8 -7.6,17.2 m -5.7,-4.8 -1.6,-2.8 -6.4,-0.3 m 0,0 2.9,6.6 5.1,-3.5 m -3.5,31.3 -1,-6.4 9.6,-6.4 3.5,-6.4 2.2,7.1 4.1,-7.1 -9.2,-7.3 m 20.7,28 -2.2,-5.1 m 0,0 -2.3,5.1 2.9,1.6 1.6,-1.6 m 99.7,142.7 1.3,-4.4 5.1,-1.9 1.2,-5.8 -4.7,-7.3 -9.3,4.5 -1.6,-4.5 -11.4,-10.8 -10.2,-0.7 -7,-6.3 -2.9,-7.4 -0.6,-13.7 -7.4,-7 1,-12.7 -7.3,-11.8 -1.3,-8.3 -5.7,-8.6 0.6,-14.3 -8,5.4 -10.2,1 -12.7,-13.7 -9.9,-4.2 -6,2.9 -7.7,-3.2 2.9,-4.1 0,-8.6 m 0,0 -7.3,5.1 -10.5,-3.8 m 0,0 -7.4,14.6 -5.1,3.5 3.9,6.4 -10.9,10.2 4.8,0.6 1,6.4 7,2.8 0.6,9.3 6.7,-3.5 2.9,5.1 -15,7.9 -8.6,0.7 -1,7.6 -7,4.5 -3.8,9.2 1.6,9.6 5.7,2.8 -4.4,20.1 2.2,5.7 -2.2,4.2 -5.4,3.5 m -254.5,-27.1 -3.5,6.4 -5.1,-3.5 5.1,-8 3.5,5.1 m 505.8,7 6.3,17.2 m -75.1,22.9 11.4,-2.8 1.6,-4.8 5.1,-2.9 4.8,-11.4 4.5,1.2 14.3,-3.5 3.5,-7.3 23.6,-8.6 m 6.3,17.2 8,16.6 10.2,15.9 9.9,11.1 9.5,10.2 4.8,3.5 16.9,11.5 6,8.6 18,15 17,5.7 3,3.8 4,12.8 3,0.9 m -367.9,-112.7 5.7,10.2 5.4,4.1 -4.8,9.6 m -58.3,58.6 5.8,-10.2 12.4,-2.6 0.6,-6.7 -5.1,-4.7 2.3,-8.6 10.2,-2.3 14.3,-13 -0.3,-8 2.2,-7 -7.6,-9.9 7.6,-2.8 9.6,-6.7 m -181.6,10.8 -1.3,6.4 -3.8,2.2 5.1,7.3 -6.4,0 -7,-7.3 -11.7,5.1 -10.6,0 -5,-3.5 0.6,-7.3 5.7,-2.9 13.7,2.2 0.7,-3.8 10.1,2.9 5.8,-10.5 5.1,4.1 -1,5.1 m 345.6,2.2 9.2,-2.2 9.3,9.2 m -176.2,3.9 13.4,10.5 14.7,-5.8 10.5,4.5 1.6,10.5 3.5,2.9 1.2,9.5 14.4,7.7 7.9,6.7 -2.2,4.7 3.8,1 8,2.9 8.3,-6.4 1.6,-10.2 7,2.9 7.3,-1.6 -1.3,-6.4 7.7,-7 12.4,-6.7 2.5,-7.6 10.9,-0.7 3.5,-3.8 5.1,1 11.4,-3.9 3.9,-8.6 0.6,-7 m 17.8,133.2 -24.2,-12.1 -8.6,-1.3 -2.8,-12.4 2.5,-1.3 8,-10.2 17.8,6.4 8,-1.9 0.6,-5.1 6.7,-4.2 -5.7,-0.9 -12.5,-13.4 -3.5,-7.3 -4.7,-2.3 1.9,-10.5 -6.4,-4.4 3.5,-9.3 -4.1,-9.5 5.7,-8.6 19.4,0.9 4.8,-4.4 0.6,-7.7 -6.3,-6.7 m -298.8,71.7 -2.2,2.2 -8,-7.9 2.9,-4.8 7.3,10.5 m 363.4,171.5 -5.1,-3 -14.3,1 -4.1,3 1.9,5 -32.8,-13 -15.3,3 -11.2,6 -2.8,4 -5.8,0 -9.5,-17 -11.5,-10.8 -6.4,-2.9 -8.6,0 -15.9,-7 -2.5,2.9 -11.8,-15.6 -13.4,-14.3 -13.7,-11.8 -13.1,-5.4 -3.5,-5.1 -1.2,-9.6 -8,-12.7 -30.3,-22.3 -11.1,0.9 -10.2,-15.3 -1.6,-5.1 -11.1,-20 -15.3,-11.5 -10.9,-4.1 m 419.9,30.2 15,7 15,2.3 6,5.7 14,6.4 m -50,-21.4 -2,11.2 -8,9.5 -3,6.4 -15,24.5 -3,1.9 -4,2.3 -4,-12.1 -9,-5.8 -1,1.9 -10,-7 -6,5.8 -10.6,10.8 5.8,7.6 -10.8,8.6 -4.5,-0.6 -8,7.3 -6.3,0.7 m 149.4,-51.6 17,-0.7 21,2.3 21,-5.1 21,-0.7 32,-6 14,2.8 5,6.7 m 0,0 4,14.4 -5,7.6 -5,2.2 -10,10.9 -12,7.3 -4,11.5 4,12.1 8,7.9 7,3.5 37,14.4 22,9.2 11,4.1 7,3.7 31,8 7,3 23,5 20,9 10,6 10,11 6,2 12,10 10,3 11,2 15,5 14,8 14,3 1,4 7,-1 5,7 0,8 9,6 19,8 20,19 9,11 13,24 -3,11 -5,6 -4,19 2,6 -3,15 -12,-6 -9,0 -20,-10 -11,-14 2,-4 -7,-5 4,-4 -1,-7 -10,-9 -4,-13 -9,-5 -11,0 -33,2 -40,-14 3,-7 -2,-5 8,0 4,-5 -11,0 -8,4 -2,-4 -15,0 -9,5 -8,9 -6,10 m -245,-226.3 3,-7 1,-10.8 m -149.4,51.6 -7,-5.8 -13.1,-4.4 -6.4,0 -4.1,-6.4 -8.6,-2.2 -8.6,7.3 -6.1,0 -3.5,-4.1 -12.7,-5.1 -6.4,0 1.3,-12.1 -9.9,-6.7 m 0,0 -1.6,0 m 1.6,0 -1.6,0 m 0,0 1.6,0 0,0 m -1.6,0 1.6,0 0,0 m 220.5,65.9 -8,-7 -1,-15.9 3,-2.9 8,2.2 15,-16.5 -4,-0.7 -3,-19.4 m -145.4,33.8 6.6,9.8 2.9,16.6 -5.7,10.2 m 145.6,-2.2 -14,-8 m -131.6,10.2 11.1,12.1 8.9,0 -3.8,-10.2 3.8,-7.6 13.4,-0.7 21.2,7.7 10,2.8 7,5.1 12,2.3 7,-5.8 9,-0.9 5,-6.4 7,2.2 14,-5.7 6,-5.1 m 78,67.1 -13,-3 -7,-4 -16,1 -10,-7 4,-9 0,-10 -10,-4 -4,3 -2,-6.1 -8,-4.1 3,-9.6 -1,-6.3 m -170.8,43.1 7.7,-3 7.3,-9 0.6,-5 -2.8,-14.7 12.4,-9.2 m 265.6,70.9 5,-12 -11,-11 -7,-2 -5,-6 -11,7 -23,0 -4,10 m 24,170 -5,-4 -10,0 -15,16 -9,-1 -9,-7 -7,-9 -14,-11 -12,0 -5,-5 -12,-5 1,-16 9,-5 0,-6 -17,-29 -11,-13 -7,-4 -10,6 -8,1 -9,6 -9,-1 -18,8 0,-7 6,-2 7,-10 4,-2 0,-5 -14,-8 -10,-9 -9.5,2 -2.2,5 -14.3,-5 -1,8 -5.7,-1 0,-14 -5.5,-10 -6,-10 -6.4,-3 -1.2,-7 -8.6,-14 -14.4,-15 m -571,24 5.7,1 0.6,-4 13.7,13 0,7 3.5,-9 12.8,4 -3.5,5 -3.5,13 5,-3 2.6,4 5.7,-2 4.5,5 -8,-1 -4.1,12 -5.7,-1 7.9,5 8.6,-3 -3.2,5 14.4,8 -8.6,7 5.7,7 6,17 0.7,10 9.9,14 -2.3,8 -8.3,16 -4.4,2 -10.8,18 0,6 3.8,14 9.9,10 -4.5,16 0.3,23 -2.9,6 0.7,17 -3.8,14 0,15 -2.6,8 2.6,3 -4.2,15 -1.3,11 4.2,4 -7,7 -2.2,10 1.9,3 -2.9,9 -4.8,2 -10.2,0 -13.4,-12 -6.6,-4 -12.7,0 -4,6 -4,-2 -12.6,-11 -2.3,3 7.4,5 -8,12 0,6 3.5,9 -3.5,11 -21.8,19 -6.3,-5 -12,-4 -9.8,7 -5.1,-2 1.1,-10 -4,0 -2.9,-17 -6.8,-1 -4.1,-7 -4,-2 -1.1,-8 -4,-2 -4.6,-9 7.4,-9 -1.1,-9 -5.7,-7 4,-6 -0.6,-6 -1.1,-4 9.7,-18 -1.7,-14 -0.6,-18 9.8,11 4,0 -5.8,-6 5.2,-8 0,-16 -10.3,-6 -3.5,6 -5.1,-4 -0.6,-13 1.7,-8 -2.8,-3 9.7,-2 4,-9 -2.9,-6 -0.5,-12 1.7,-8 -1.7,-9 -9.8,-6 0.6,-11 -2.9,-13 -4.6,-3 -2.2,-12 -5.8,-3 -6.9,4 0,-7 -5.1,1 -1.7,7 -2.9,-10 4.6,-3 2.9,-8 -8.1,-7 10.3,-23 0,-8 -4,-2 2.9,-8 4.6,3 -0.6,8 9.8,10 26.9,4 10.3,-4 5.2,-8 9.2,-4 6.8,2 6.3,-5 8.6,-14 4.6,-2 11.5,-15 11.5,-2 8.6,-8 1.1,-10 8,-3 4.5,4 2.3,7 m 19.1,-4 -7.7,1 -0.3,-3 6,-5 2,7 m 4.4,4 -3.8,2 2.9,-10 2.2,4 -1.3,4 m 806.3,162 0,-6 5,-9 0,-5 10,-10 0,-9 -9,-8 -2,-9 -16,-8 -8,-10 -3,-12 -10,-7 5,-9 -7,-3 -8,-8 -6,-15 3,-4 -1,-10 13,-1 9,-8 4,-12 -3,-7 m 177,99 -10,-14 -6,2 -5,-14 -1,-19 -3,-5 2,-4 -13,-6 -16,2 -8,9 -4,-1 -8,-6 -14,-13 -5,-9 -2,-3 -5,-1 -5,3 -18,-6 m -994.7,19 -0.6,9 -4.6,-1 2.3,-7 6.3,-6 0,-5 6.3,-3 0.6,3 0,7 -10.3,3 m 736.1,38 -8.6,4 -5.1,-3 0.9,-8 14.1,4 -1.3,3 m 379.6,28 -8,16 -5,16 -11,16 m 0,0 -4,7 -1,7 6,13 m -1,-27 -29,2 -2,12 -1,10 -4,11 1,6 -7,-6 -5,0 -8,5 -17,3 -7,-6 -1,-7 -5,1 -3,-4 -6,4 -7,-3 -10,8 -3,7 m 0,0 -3,-6 -12,-14 m 130,4 -11,15 -5,13 0,5 6,9 -2,6 5,5 11,5 16,-1 10,4 4,6 15,8 9,3 5,6 14,5 -4,12 1,13 4,8 -1,15 6,14 6,1 -4,5 1,7 -8,12 -5,-4 -6,3 -6,-5 -12,3 -21,10 -14,12 -5,6 -4,11 8,33 1,10 -1,8 -12,13 -16,10 -5,4 -16,24 -4,24 -4,10 -12,6 -8,-2 -24,4 -13,-7 -5,-7 3,-6 -5,-8 2,-9 -3,-13 2,-3 18,-7 13,-35 1,-6 -3,-12 -9,-8 1,-5 20,-13 15,-1 8,-5 4,-11 -1,-15 -2,-5 -7,-4 -9,-15 -2,-4 -10,-46 -6,-15 -10,-12 -9,-8 -5,-15 -4,-7 -4,-16 -3,-6 1,-7 -5,-9 m -973.1,157 0,15 -6.9,0 -4,-9 2.9,-4 8,-2 m 17.2,38 -3.5,1 -8,-17 1.7,-9 10.9,2 2.3,8 -3.4,15 m 856.9,43 -2,4 -9,-4 8,-2 3,2 m 14,14 -1,5 -9,-4 1,-6 7,-1 2,6 m 3,13 2,6 -7,-4 0,-7 5,5 m 81,30 -9,20 -13,19 -16,30 -7,11 2,5 -6,26 -8,13 1,23 3,6 15,5 5,4 -9,10 10,14 8,3 0,6 5,8 -9,3 0,4 -12,7 -9,25 6,18 -2,5 -6,0 -10,-6 -3,2 -14,-6 -13,6 -14,-3 -3,-5 -24,-5 -14,-25 -9,-9 -8,-7 -22,-11 -12,1 -12.7,4 -6.4,-1 -8.6,-6 -10.8,-3 -9.6,-5 -16.2,-13 -15.9,-4 -24.9,-15 -3.2,-6 -11.4,-9 -16.9,-2 -2.9,2 -7.9,-10 -10.2,-3 -15.6,1 -16.6,2 -9.2,-12 -9.6,-3 -4.8,-4 -9.2,-21 4.8,-3 1.6,-10 -1.6,-5 4.4,-17 9.3,-11 4.4,2 7,-9 8,-3 -0.6,-8 5.4,-2 8.6,18 10.8,8 10.2,-3 12.7,-9 -2.8,-8 5.7,-9 14.3,2 14.4,-8 7.9,8 2.9,11 16.6,-2 4.7,9 22.3,12 10.9,1 14.3,-7 5.1,-3 10.8,-5 12.5,5 9,-2 13,1 15,-3 6,-4 10,0 17,-7 12,-14 9,-1 14,-5 8,3 11,2 6,3 12,-6 7,-14 1,4 7,1 13,-5 15,-13 6,0 13,3 -9,7 0,7 m -428.2,69 -3.2,3 -9.2,-5 6.3,0 6.1,2 m -36.6,194 -2.3,9 -4.4,-1 -8.6,-7 -1.9,-6 7.6,0 2.9,-2 6.7,7 m 86,217 -1,1 -12.1,-4 13.7,0 -0.6,3" style="fill: none; stroke: rgb(255, 255, 255); stroke-width: 3px; stroke-linecap: round; stroke-linejoin: round; stroke-dasharray: none; stroke-opacity: 1; stroke-miterlimit: 4;" id="boundaries"></path>
</svg>