<svg version="1.2" xmlns="http://www.w3.org/2000/svg" viewBox="0 0 640 480" width="640" height="480"><defs><clipPath clipPathUnits="userSpaceOnUse" id="cp1"><path d="m0.03 0h640.03v480h-640.03z"/></clipPath></defs><style>.a{fill:#fff}.b{fill:#da0000}.c{fill:#239f40}</style><g clip-path="url(#cp1)"><path fill-rule="evenodd" class="a" d="m-100 0h840v480h-840z"/><path fill-rule="evenodd" class="b" d="m-100 322.3h840v157.7h-840z"/><path fill-rule="evenodd" class="c" d="m-100 0h840v157.7h-840z"/><path fill-rule="evenodd" class="b" d="m342.3 185.2c7.9 9.7 32.4 63.3-14.7 98.6-22.2 16.7-8.4 17.4-7.8 20.2 35.6-18.8 47.2-44.5 46.9-67.5-0.2-22.8-12.4-43.1-24.4-51.3z"/><path fill-rule="evenodd" class="b" d="m347 182.6c8.7 5.3 16.1 12.5 21.7 21 5.6 8.5 9.2 18.1 10.6 28.2 1.4 10.1 0.6 20.4-2.5 30.1-3 9.7-8.2 18.6-15.1 26.1 25.5-5.6 58.1-81-14.7-105.4zm-68.6 105.4c-6.9-7.5-12.1-16.4-15.2-26.1-3-9.7-3.9-20-2.5-30.1 1.4-10 5-19.7 10.6-28.2 5.6-8.5 13-15.7 21.7-21-72.7 24.4-40.2 99.8-14.6 105.4z"/><path fill-rule="evenodd" class="b" d="m297.7 185.2c-7.9 9.7-32.4 63.3 14.7 98.6 22.1 16.7 8.4 17.4 7.8 20.2-35.6-18.8-47.2-44.5-46.9-67.5 0.2-22.8 12.4-43.1 24.4-51.3z"/><path fill-rule="evenodd" class="b" d="m365.2 299.2c-14 0.1-31.5-1.9-44.5-8.8 2.1 4.3 3.9 6.9 6.1 11 12.3 1.2 29.5 2.6 38.4-2.2zm-50.6 2.2c2.1-4.1 3.9-6.7 6.1-11-13.1 6.9-30.6 8.9-44.6 8.8 8.9 4.8 26.1 3.4 38.5 2.2zm5.2-121.4c0.7 3.6 20.2 8.1 17.8-10.5-3.1 7.5-12 7.2-17.8 3.8-7.9 4.5-15.3 3.3-18.1-4.2-2.7 13.9 10.8 17.9 18.1 10.9z"/><path fill-rule="evenodd" class="b" d="m320.4 310.9l7.3-8.5 1-112.6-8.7-7.6-8.7 7.3 1.8 113.4z"/></g></svg>